<?xml version="1.0" standalone="no"?>
<!DOCTYPE svg PUBLIC "-//W3C//DTD SVG 20010904//EN"
 "http://www.w3.org/TR/2001/REC-SVG-20010904/DTD/svg10.dtd">
<svg version="1.0" xmlns="http://www.w3.org/2000/svg"
 width="500.000000pt" height="500.000000pt" viewBox="0 0 500.000000 500.000000"
 preserveAspectRatio="xMidYMid meet">

<g transform="translate(0.000000,500.000000) scale(0.100000,-0.100000)"
fill="#000000" stroke="none">
<path d="M2335 4994 c-22 -2 -80 -8 -130 -14 -885 -105 -1650 -678 -2000
-1495 -138 -325 -199 -625 -199 -985 0 -425 93 -803 290 -1175 66 -125 225
-362 287 -427 6 -7 43 -48 82 -92 70 -79 234 -227 335 -303 602 -451 1369
-607 2100 -427 321 79 630 226 900 427 48 36 126 102 239 202 41 37 202 221
258 295 44 60 163 236 163 243 0 3 20 41 45 86 111 201 209 482 254 731 49
271 49 609 0 880 -69 380 -230 749 -462 1060 -72 96 -232 273 -302 335 -37 33
-73 65 -79 70 -85 78 -305 227 -441 299 -216 114 -452 198 -711 251 -139 29
-503 51 -629 39z m10 -1104 c207 -24 352 -75 511 -182 176 -118 297 -253 385
-433 148 -302 164 -618 48 -913 -37 -92 -73 -165 -112 -220 l-29 -44 48 -50
c27 -27 183 -183 348 -346 306 -304 335 -341 336 -412 0 -55 -38 -121 -85
-147 -44 -25 -108 -30 -152 -11 -15 6 -188 171 -384 366 l-357 355 -47 -33
c-56 -38 -187 -101 -270 -128 -109 -37 -216 -54 -340 -55 -318 -3 -586 110
-831 350 -65 64 -174 228 -217 327 -127 295 -118 671 23 951 177 353 507 583
895 624 114 12 130 12 230 1z"/>
<path d="M2080 3535 c-162 -37 -279 -102 -401 -224 -82 -82 -102 -109 -141
-191 -67 -139 -82 -202 -82 -350 -1 -147 19 -230 87 -369 71 -146 233 -294
396 -360 110 -46 166 -56 306 -55 119 0 138 3 225 33 310 105 530 388 547 701
20 357 -205 681 -551 792 -113 37 -281 47 -386 23z"/>
</g>
</svg>
