<?xml version="1.0" standalone="no"?>
<!DOCTYPE svg PUBLIC "-//W3C//DTD SVG 20010904//EN"
 "http://www.w3.org/TR/2001/REC-SVG-20010904/DTD/svg10.dtd">
<svg version="1.0" xmlns="http://www.w3.org/2000/svg"
 width="500.000000pt" height="500.000000pt" viewBox="0 0 500.000000 500.000000"
 preserveAspectRatio="xMidYMid meet">

<g transform="translate(0.000000,500.000000) scale(0.100000,-0.100000)"
fill="#000000" stroke="none">
<path d="M2335 4994 c-22 -2 -80 -8 -130 -14 -885 -105 -1650 -678 -2000
-1495 -138 -325 -199 -625 -199 -985 0 -361 60 -659 200 -986 86 -201 271
-504 377 -616 6 -7 43 -48 82 -92 70 -79 234 -227 335 -303 603 -451 1369
-607 2100 -427 321 79 630 226 900 427 48 36 126 102 239 202 42 37 202 221
258 295 232 311 393 680 462 1060 49 271 49 609 0 880 -69 380 -230 750 -462
1060 -77 102 -224 265 -303 335 -44 39 -81 72 -84 75 -25 26 -126 101 -225
167 -282 187 -571 306 -921 378 -139 29 -503 51 -629 39z m910 -1178 c43 -18
75 -69 75 -120 0 -58 -41 -92 -360 -300 -151 -99 -367 -240 -480 -314 -113
-74 -250 -164 -305 -200 -55 -36 -145 -95 -200 -132 -55 -37 -162 -106 -237
-154 -76 -48 -138 -92 -138 -97 0 -4 10 -14 23 -20 12 -6 119 -75 237 -153
118 -78 287 -189 375 -247 88 -57 228 -149 312 -204 84 -55 284 -187 445 -293
191 -125 300 -203 311 -221 37 -62 8 -149 -59 -177 -50 -21 -82 -11 -184 57
-48 32 -119 78 -156 102 -38 23 -127 81 -199 129 -71 48 -204 136 -295 195
-178 116 -508 332 -685 448 -351 232 -422 280 -444 300 -32 31 -40 106 -17
149 19 33 103 90 826 561 91 59 215 140 275 180 61 39 205 134 320 210 116 75
261 171 323 212 110 73 164 102 190 103 7 0 28 -6 47 -14z"/>
</g>
</svg>
