<?xml version="1.0" standalone="no"?>
<!DOCTYPE svg PUBLIC "-//W3C//DTD SVG 20010904//EN"
 "http://www.w3.org/TR/2001/REC-SVG-20010904/DTD/svg10.dtd">
<svg version="1.0" xmlns="http://www.w3.org/2000/svg"
 width="500.000000pt" height="500.000000pt" viewBox="0 0 500.000000 500.000000"
 preserveAspectRatio="xMidYMid meet">

<g transform="translate(0.000000,500.000000) scale(0.100000,-0.100000)"
fill="#000000" stroke="none">
<path d="M2335 4994 c-22 -2 -80 -8 -130 -14 -885 -105 -1650 -678 -2000
-1495 -138 -325 -199 -625 -199 -985 0 -361 60 -659 200 -986 86 -201 271
-504 377 -616 6 -7 43 -48 82 -92 70 -79 234 -227 335 -303 603 -451 1369
-607 2100 -427 321 79 630 226 900 427 48 36 126 102 239 202 42 37 202 221
258 295 232 311 393 680 462 1060 49 271 49 609 0 880 -69 380 -230 750 -462
1060 -77 102 -224 265 -303 335 -44 39 -81 72 -84 75 -25 26 -126 101 -225
167 -282 187 -571 306 -921 378 -139 29 -503 51 -629 39z m-579 -1174 c26 -10
89 -51 399 -255 61 -40 205 -134 320 -210 116 -75 273 -179 350 -229 77 -51
155 -101 173 -112 18 -10 90 -58 160 -105 70 -47 206 -137 304 -200 152 -98
179 -119 192 -152 41 -98 20 -128 -182 -261 -92 -60 -239 -156 -327 -214 -88
-57 -230 -151 -315 -207 -85 -56 -168 -110 -185 -119 -16 -9 -92 -58 -167
-109 -75 -50 -206 -137 -290 -191 -84 -55 -213 -139 -285 -187 -73 -48 -146
-90 -163 -94 -37 -8 -95 18 -122 56 -24 32 -26 98 -4 130 14 22 136 108 346
244 36 24 178 116 315 207 138 90 265 173 282 183 18 11 93 60 165 108 73 49
205 136 293 193 246 159 304 199 304 204 1 5 -20 19 -324 217 -168 109 -314
205 -685 448 -124 81 -270 177 -325 213 -379 247 -385 252 -385 323 0 54 26
94 74 115 38 16 47 17 82 4z"/>
</g>
</svg>
